<svg width="16" height="16" viewBox="0 0 16 16" fill="none" xmlns="http://www.w3.org/2000/svg">
<rect width="16" height="16" fill="#262626"/>
<path fill-rule="evenodd" clip-rule="evenodd" d="M14.0502 5.06665H5.4251V5.45956H14.0502V5.06665ZM2.25894 9.65367C2.35521 9.70821 2.4611 9.73548 2.57662 9.73548H4.78595C4.90147 9.73548 5.00736 9.70821 5.10363 9.65367C5.19989 9.59592 5.2753 9.52053 5.32985 9.42749C5.38761 9.33125 5.41649 9.22538 5.41649 9.10988V7.83463H4.07357V8.35917H4.89184V9.09544C4.89184 9.12753 4.88061 9.1564 4.85815 9.18207C4.83568 9.20452 4.80841 9.21575 4.77632 9.21575H2.59106C2.55898 9.21575 2.53009 9.20452 2.50442 9.18207C2.48196 9.1564 2.47073 9.12753 2.47073 9.09544V6.91066C2.47073 6.87858 2.48196 6.85131 2.50442 6.82886C2.53009 6.80319 2.55898 6.79036 2.59106 6.79036H4.77632C4.80841 6.79036 4.83568 6.80319 4.85815 6.82886C4.88061 6.85131 4.89184 6.87858 4.89184 6.91066V7.10316H5.41649V6.89623C5.41649 6.78073 5.38761 6.67647 5.32985 6.58343C5.2753 6.48718 5.19989 6.41179 5.10363 6.35725C5.00736 6.2995 4.90147 6.27063 4.78595 6.27063H2.57662C2.4611 6.27063 2.35521 6.2995 2.25894 6.35725C2.16589 6.41179 2.09048 6.48718 2.03272 6.58343C1.97816 6.67647 1.95089 6.78073 1.95089 6.89623V9.10988C1.95089 9.22538 1.97816 9.33125 2.03272 9.42749C2.09048 9.52053 2.16589 9.59592 2.25894 9.65367ZM6.2083 6.27063V9.73548H6.72814V6.96841L9.05298 9.73548H9.6739V6.27063H9.14925V9.03289L6.82922 6.27063H6.2083ZM11.1008 9.73548C10.9853 9.73548 10.8794 9.70821 10.7832 9.65367C10.6901 9.59592 10.6147 9.52053 10.5569 9.42749C10.5024 9.33125 10.4751 9.22538 10.4751 9.10988V6.89623C10.4751 6.78073 10.5024 6.67647 10.5569 6.58343C10.6147 6.48718 10.6901 6.41179 10.7832 6.35725C10.8794 6.2995 10.9853 6.27063 11.1008 6.27063H13.9311V6.79036H11.173C11.1217 6.79036 11.0784 6.808 11.0431 6.84329C11.011 6.87537 10.9949 6.91708 10.9949 6.96841V9.0377C10.9949 9.08903 11.011 9.13234 11.0431 9.16763C11.0784 9.19971 11.1217 9.21575 11.173 9.21575H13.9311V9.73548H11.1008ZM1.9502 10.5404H10.596V10.9333H1.9502V10.5404Z" fill="white"/>
</svg>
