<svg width="32" height="32" viewBox="0 0 32 32" fill="none" xmlns="http://www.w3.org/2000/svg">
<rect width="32" height="32" fill="#262626"/>
<path fill-rule="evenodd" clip-rule="evenodd" d="M28.1004 10.1333H10.8502V10.9191H28.1004V10.1333ZM4.51789 19.3073C4.71042 19.4164 4.92221 19.471 5.15325 19.471H9.57189C9.80293 19.471 10.0147 19.4164 10.2073 19.3073C10.3998 19.1918 10.5506 19.0411 10.6597 18.855C10.7752 18.6625 10.833 18.4508 10.833 18.2198V15.6692H8.14714V16.7183H9.78368V18.1909C9.78368 18.2551 9.76122 18.3128 9.71629 18.3641C9.67137 18.409 9.61682 18.4315 9.55264 18.4315H5.18213C5.11795 18.4315 5.06019 18.409 5.00885 18.3641C4.96392 18.3128 4.94146 18.2551 4.94146 18.1909V13.8213C4.94146 13.7572 4.96392 13.7026 5.00885 13.6577C5.06019 13.6064 5.11795 13.5807 5.18213 13.5807H9.55264C9.61682 13.5807 9.67137 13.6064 9.71629 13.6577C9.76122 13.7026 9.78368 13.7572 9.78368 13.8213V14.2063H10.833V13.7925C10.833 13.5615 10.7752 13.3529 10.6597 13.1669C10.5506 12.9744 10.3998 12.8236 10.2073 12.7145C10.0147 12.599 9.80293 12.5413 9.57189 12.5413H5.15325C4.92221 12.5413 4.71042 12.599 4.51789 12.7145C4.33177 12.8236 4.18095 12.9744 4.06543 13.1669C3.95633 13.3529 3.90178 13.5615 3.90178 13.7925V18.2198C3.90178 18.4508 3.95633 18.6625 4.06543 18.855C4.18095 19.0411 4.33177 19.1918 4.51789 19.3073ZM12.4166 12.5413V19.471H13.4563V13.9368L18.106 19.471H19.3478V12.5413H18.2985V18.0658L13.6584 12.5413H12.4166ZM22.2017 19.471C21.9706 19.471 21.7589 19.4164 21.5663 19.3073C21.3802 19.1918 21.2294 19.0411 21.1139 18.855C21.0048 18.6625 20.9502 18.4508 20.9502 18.2198V13.7925C20.9502 13.5615 21.0048 13.3529 21.1139 13.1669C21.2294 12.9744 21.3802 12.8236 21.5663 12.7145C21.7589 12.599 21.9706 12.5413 22.2017 12.5413H27.8622V13.5807H22.3461C22.2434 13.5807 22.1568 13.616 22.0862 13.6866C22.022 13.7507 21.9899 13.8342 21.9899 13.9368V18.0754C21.9899 18.1781 22.022 18.2647 22.0862 18.3353C22.1568 18.3994 22.2434 18.4315 22.3461 18.4315H27.8622V19.471H22.2017ZM3.90039 21.0808H21.192V21.8666H3.90039V21.0808Z" fill="white"/>
</svg>
