<svg width="80" height="80" viewBox="0 0 80 80" fill="none" xmlns="http://www.w3.org/2000/svg">
<rect width="80" height="80" fill="#262626"/>
<path fill-rule="evenodd" clip-rule="evenodd" d="M70.2501 25.3333H27.1245V27.2978H70.2501V25.3333ZM11.2937 48.2684C11.7751 48.5411 12.3045 48.6775 12.8821 48.6775H23.9288C24.5064 48.6775 25.0358 48.5411 25.5172 48.2684C25.9985 47.9797 26.3755 47.6027 26.6483 47.1375C26.9371 46.6563 27.0815 46.1269 27.0815 45.5495V39.1732H20.3669V41.7959H24.4582V45.4773C24.4582 45.6377 24.4021 45.7821 24.2898 45.9104C24.1774 46.0227 24.0411 46.0788 23.8806 46.0788H12.9543C12.7939 46.0788 12.6495 46.0227 12.5211 45.9104C12.4088 45.7821 12.3527 45.6377 12.3527 45.4773V34.5534C12.3527 34.393 12.4088 34.2566 12.5211 34.1443C12.6495 34.016 12.7939 33.9518 12.9543 33.9518H23.8806C24.0411 33.9518 24.1774 34.016 24.2898 34.1443C24.4021 34.2566 24.4582 34.393 24.4582 34.5534V35.5158H27.0815V34.4812C27.0815 33.9037 26.9371 33.3824 26.6483 32.9172C26.3755 32.436 25.9985 32.059 25.5172 31.7863C25.0358 31.4976 24.5064 31.3532 23.9288 31.3532H12.8821C12.3045 31.3532 11.7751 31.4976 11.2937 31.7863C10.8285 32.059 10.4514 32.436 10.1626 32.9172C9.88985 33.3824 9.75347 33.9037 9.75347 34.4812V45.5495C9.75347 46.1269 9.88985 46.6563 10.1626 47.1375C10.4514 47.6027 10.8285 47.9797 11.2937 48.2684ZM31.0405 31.3532V48.6775H33.6397V34.8421L45.2639 48.6775H48.3685V31.3532H45.7453V45.1645L34.1451 31.3532H31.0405ZM55.5032 48.6775C54.9256 48.6775 54.3962 48.5411 53.9148 48.2684C53.4495 47.9797 53.0725 47.6027 52.7837 47.1375C52.5109 46.6563 52.3746 46.1269 52.3746 45.5495V34.4812C52.3746 33.9037 52.5109 33.3824 52.7837 32.9172C53.0725 32.436 53.4495 32.059 53.9148 31.7863C54.3962 31.4976 54.9256 31.3532 55.5032 31.3532H69.6544V33.9518H55.8642C55.6075 33.9518 55.3909 34.0401 55.2144 34.2165C55.054 34.3769 54.9738 34.5855 54.9738 34.8421V45.1885C54.9738 45.4452 55.054 45.6618 55.2144 45.8382C55.3909 45.9986 55.6075 46.0788 55.8642 46.0788H69.6544V48.6775H55.5032ZM9.75 52.7021H52.979V54.6667H9.75V52.7021Z" fill="white"/>
</svg>
